<?xml version="1.0" encoding="UTF-8" standalone="no"?>
<!-- Created with Inkscape (http://www.inkscape.org/) -->

<svg
   width="3840"
   height="2160"
   viewBox="0 0 1016 571.5"
   version="1.1"
   id="svg5"
   inkscape:version="1.2.2 (b0a84865, 2022-12-01)"
   sodipodi:docname="wallpaper.svg"
   xmlns:inkscape="http://www.inkscape.org/namespaces/inkscape"
   xmlns:sodipodi="http://sodipodi.sourceforge.net/DTD/sodipodi-0.dtd"
   xmlns="http://www.w3.org/2000/svg"
   xmlns:svg="http://www.w3.org/2000/svg">
  <sodipodi:namedview
     id="namedview7"
     pagecolor="#ffffff"
     bordercolor="#999999"
     borderopacity="1"
     inkscape:showpageshadow="0"
     inkscape:pageopacity="0"
     inkscape:pagecheckerboard="0"
     inkscape:deskcolor="#d1d1d1"
     inkscape:document-units="mm"
     showgrid="false"
     inkscape:zoom="0.2348396"
     inkscape:cx="2126.9837"
     inkscape:cy="1228.4981"
     inkscape:window-width="1470"
     inkscape:window-height="833"
     inkscape:window-x="0"
     inkscape:window-y="37"
     inkscape:window-maximized="0"
     inkscape:current-layer="layer1" />
  <defs
     id="defs2" />
  <g
     inkscape:label="Layer 1"
     inkscape:groupmode="layer"
     id="layer1">
    <rect
       style="fill:#181825;stroke-width:0.264583;fill-opacity:1"
       id="rect757"
       width="1016"
       height="571.5"
       x="0"
       y="0" />
    <path
       style="fill:#1e1e2e;stroke-width:0.264583;fill-opacity:1"
       d="m 430.39831,133.3983 c 81.91123,3.17154 103.01111,-4.37921 113.20459,-1.51973 C 586.25156,143.8424 670.04462,216.18443 1016,297 V 571.49999 H 0 Z"
       id="path543"
       sodipodi:nodetypes="cscccc" />
    <path
       style="fill:#181825;stroke-width:0.264583;fill-opacity:1"
       d="M 485.77118,166.11864 C 670.76693,314.69492 1016,352.37287 1016,352.37287 V 571.49999 H 0 V 309.58475 Z"
       id="path438"
       sodipodi:nodetypes="cccccc" />
    <path
       style="fill:#1e1e2e;stroke-width:0.264583;fill-opacity:1"
       d="M 536.11017,352.37287 C 689.64406,479.47881 1016,538.6271 1016,538.6271 v 32.87289 H 271.83051 Z"
       id="path436"
       sodipodi:nodetypes="ccccc" />
    <path
       style="fill:#11111b;stroke-width:0.264583;fill-opacity:1"
       d="m 0,239.11017 c 196.32203,0 430.39831,-105.71187 430.39831,-105.71187 0,0 15.13246,5.50802 55.37287,32.72034 69.71901,47.14705 -46.02698,78.53772 -78.24878,89.20279 -73.14255,24.2094 68.18099,58.03874 128.58777,97.05144 60.40676,39.01271 -264.27966,219.12712 -264.27966,219.12712 H 0 Z"
       id="path160"
       sodipodi:nodetypes="ccsssccc" />
    <circle
       style="fill:#181825;stroke-width:0.264583;fill-opacity:1"
       id="path651"
       cx="770.54468"
       cy="110.609505"
       r="30" />
  </g>
</svg>
